<svg width="217" height="217" viewBox="0 0 217 217" fill="none" xmlns="http://www.w3.org/2000/svg">
<path d="M108.5 217C168.423 217 217 168.423 217 108.5C217 48.5771 168.423 0 108.5 0C48.5771 0 0 48.5771 0 108.5C0 168.423 48.5771 217 108.5 217Z" fill="#F6D738"/>
<path d="M108.5 200.583C159.356 200.583 200.583 159.356 200.583 108.5C200.583 57.6439 159.356 16.4168 108.5 16.4168C57.6439 16.4168 16.4168 57.6439 16.4168 108.5C16.4168 159.356 57.6439 200.583 108.5 200.583Z" fill="#F3CC30"/>
<path d="M156.677 29.9084C165.846 44.2236 171.163 61.2453 171.163 79.5074C171.163 130.364 129.937 171.591 79.0803 171.591C61.4195 171.591 44.9207 166.615 30.9028 157.993C47.2684 183.541 75.9056 200.474 108.5 200.474C159.357 200.474 200.583 159.247 200.583 108.391C200.583 75.1982 183.018 46.1099 156.677 29.9084Z" fill="#EDBD31"/>
<path d="M32.5466 116.927C32.5466 72.0337 68.9377 35.6427 113.831 35.6427C140.073 35.6427 163.403 48.0783 178.265 67.3759C164.23 43.0104 137.92 26.6039 107.779 26.6039C62.8856 26.6039 26.4945 62.9949 26.4945 107.888C26.4945 126.54 32.7824 143.722 43.3453 157.439C36.4799 145.513 32.5466 131.676 32.5466 116.927Z" fill="#F7DB5E"/>
<path d="M116.1 49.0659V60.7976C120.809 61.5562 124.66 63.1111 127.651 65.4657C130.644 67.8202 133.494 71.4323 136.211 76.2986L124.541 82.8222C121.028 76.4387 116.438 73.2469 110.776 73.2469C107.263 73.2469 104.351 74.2858 102.038 76.3601C99.7243 78.4344 98.5658 81.0281 98.5658 84.1413C98.5658 86.9743 99.5022 89.3288 101.378 91.2049C103.213 93.04 106.925 95.2169 112.512 97.7286C117.341 99.9225 121.329 101.99 124.483 103.924C127.634 105.858 130.009 107.724 131.604 109.522C136.112 114.391 138.367 120.276 138.367 127.179C138.367 133.962 136.334 139.95 132.264 145.134C128.232 150.28 122.846 153.752 116.104 155.55V167.937H105.629V155.909C97.8072 154.63 91.8439 151.938 87.7329 147.83C83.6219 143.719 80.5907 137.376 78.636 128.795L91.8029 126.041C93.597 132.107 95.7909 136.437 98.3881 139.03C101.101 141.505 104.71 142.742 109.221 142.742C113.609 142.742 117.279 141.327 120.235 138.49C123.147 135.698 124.606 132.086 124.606 127.658C124.606 123.707 123.389 120.536 120.956 118.14C119.719 116.985 117.894 115.676 115.478 114.221C113.062 112.765 109.98 111.179 106.231 109.464C98.4906 105.992 93.4022 102.8 90.9691 99.8883C87.0973 95.5381 85.1631 90.3335 85.1631 84.2678C85.1631 81.3938 85.621 78.7214 86.5403 76.2473C87.4595 73.7732 88.7854 71.528 90.5214 69.5152C92.2574 67.5024 94.4035 65.7561 96.9562 64.2798C99.509 62.8036 102.403 61.6451 105.633 60.8078V49.0762H116.1V49.0659Z" fill="#D49A34"/>
</svg>
