<svg width="32" height="20" viewBox="0 0 32 20" fill="none" xmlns="http://www.w3.org/2000/svg">
<path d="M0 17C0 15.3431 0.482929 14 1.07865 14H30.9213C31.5171 14 32 15.3431 32 17C32 18.6569 31.5171 20 30.9213 20H1.07865C0.482929 20 0 18.6569 0 17Z" fill="#D49A34"/>
<path d="M0 10C0 8.34315 0.482929 7 1.07865 7H30.9213C31.5171 7 32 8.34315 32 10C32 11.6569 31.5171 13 30.9213 13H1.07865C0.482929 13 0 11.6569 0 10Z" fill="#D49A34"/>
<path d="M0 3C0 1.34315 0.482929 0 1.07865 0H30.9213C31.5171 0 32 1.34315 32 3C32 4.65685 31.5171 6 30.9213 6H1.07865C0.482929 6 0 4.65685 0 3Z" fill="#D49A34"/>
</svg>
